<?xml version="1.0" encoding="UTF-8"?>
<svg version="1.1" xmlns="http://www.w3.org/2000/svg" width="338" height="338">
    <path
        d="M0 0 C2.00741073 -0.0054323 4.01481747 -0.01256113 6.0222168 -0.02124023 C11.43135515 -0.03934474 16.84018545 -0.03245961 22.24932861 -0.01972389 C27.93575818 -0.00952907 33.62216304 -0.01900745 39.30859375 -0.02526855 C48.85421436 -0.03252619 58.39971079 -0.02300684 67.9453125 -0.00390625 C78.94887749 0.01785876 89.95214592 0.01080606 100.95570374 -0.01121187 C110.43814108 -0.02941969 119.92048965 -0.03189795 129.40293884 -0.0214572 C135.0510646 -0.01525179 140.69905139 -0.01430478 146.34716797 -0.02760315 C151.65961446 -0.03923966 156.97168215 -0.03099462 162.28408813 -0.00802612 C164.22253799 -0.00278044 166.16102025 -0.00418087 168.09945679 -0.01307678 C182.50315691 -0.07303565 195.73504441 1.29728396 208.75 8.08007812 C209.40613281 8.41668457 210.06226563 8.75329102 210.73828125 9.10009766 C224.39275131 16.43904517 234.75260144 27.51503654 241.875 41.20507812 C242.19251221 41.80344482 242.51002441 42.40181152 242.8371582 43.01831055 C249.52336296 56.59993866 250.21057737 70.07540856 250.14257812 84.89257812 C250.14801043 86.89998886 250.15513925 88.9073956 250.16381836 90.91479492 C250.18192287 96.32393328 250.17503773 101.73276358 250.16230202 107.14190674 C250.1521072 112.8283363 250.16158557 118.51474117 250.16784668 124.20117188 C250.17510431 133.74679248 250.16558496 143.29228891 250.14648438 152.83789062 C250.12471936 163.84145562 250.13177206 174.84472404 250.15379 185.84828186 C250.17199782 195.33071921 250.17447608 204.81306777 250.16403532 214.29551697 C250.15782991 219.94364272 250.1568829 225.59162951 250.17018127 231.23974609 C250.18181778 236.55219259 250.17357274 241.86426027 250.15060425 247.17666626 C250.14535856 249.11511611 250.146759 251.05359838 250.15565491 252.99203491 C250.21561377 267.39573504 248.84529416 280.62762254 242.0625 293.64257812 C241.72589355 294.29871094 241.38928711 294.95484375 241.04248047 295.63085938 C233.70353295 309.28532943 222.62754159 319.64517957 208.9375 326.76757812 C208.3391333 327.08509033 207.7407666 327.40260254 207.12426758 327.72973633 C193.54263946 334.41594108 180.06716957 335.10315549 165.25 335.03515625 C163.24258927 335.04058855 161.23518253 335.04771738 159.2277832 335.05639648 C153.81864485 335.07450099 148.40981455 335.06761586 143.00067139 335.05488014 C137.31424182 335.04468532 131.62783696 335.0541637 125.94140625 335.0604248 C116.39578564 335.06768244 106.85028921 335.05816309 97.3046875 335.0390625 C86.30112251 335.01729749 75.29785408 335.02435019 64.29429626 335.04636812 C54.81185892 335.06457594 45.32951035 335.0670542 35.84706116 335.05661345 C30.1989354 335.05040804 24.55094861 335.04946103 18.90283203 335.0627594 C13.59038554 335.07439591 8.27831785 335.06615087 2.96591187 335.04318237 C1.02746201 335.03793669 -0.91102025 335.03933712 -2.84945679 335.04823303 C-17.25315691 335.1081919 -30.48504441 333.73787229 -43.5 326.95507812 C-44.48419922 326.45016846 -44.48419922 326.45016846 -45.48828125 325.93505859 C-59.14275131 318.59611108 -69.50260144 307.52011971 -76.625 293.83007812 C-76.94251221 293.23171143 -77.26002441 292.63334473 -77.5871582 292.0168457 C-84.27336296 278.43521759 -84.96057737 264.95974769 -84.89257812 250.14257812 C-84.89801043 248.13516739 -84.90513925 246.12776065 -84.91381836 244.12036133 C-84.93192287 238.71122297 -84.92503773 233.30239267 -84.91230202 227.89324951 C-84.9021072 222.20681995 -84.91158557 216.52041508 -84.91784668 210.83398438 C-84.92510431 201.28836377 -84.91558496 191.74286734 -84.89648438 182.19726562 C-84.87471936 171.19370063 -84.88177206 160.19043221 -84.90379 149.18687439 C-84.92199782 139.70443704 -84.92447608 130.22208848 -84.91403532 120.73963928 C-84.90782991 115.09151353 -84.9068829 109.44352674 -84.92018127 103.79541016 C-84.93181778 98.48296366 -84.92357274 93.17089598 -84.90060425 87.85848999 C-84.89535856 85.92004014 -84.896759 83.98155787 -84.90565491 82.04312134 C-84.96561377 67.63942121 -83.59529416 54.40753371 -76.8125 41.39257812 C-76.47589355 40.73644531 -76.13928711 40.0803125 -75.79248047 39.40429688 C-68.45353295 25.74982682 -57.37754159 15.38997668 -43.6875 8.26757812 C-43.0891333 7.95006592 -42.4907666 7.63255371 -41.87426758 7.30541992 C-28.29263946 0.61921517 -14.81716957 -0.06799924 0 0 Z "
        fill="#6fa0ff"
        transform="translate(86.375,1.482421875)"
    ></path>
    <path
        d="M0 0 C4.0308868 2.32225952 6.94287483 5.1403502 10.1980238 8.43071461 C10.87073623 9.09874707 11.54344867 9.76677954 12.23654634 10.45505542 C14.48449417 12.69105575 16.72158825 14.9376041 18.95884228 17.18430042 C20.5699815 18.79137386 22.1817581 20.39780854 23.79412365 22.00365162 C28.16864522 26.36449479 32.53362158 30.73477692 36.89654994 35.10721517 C41.46306256 39.68132157 46.03688852 44.24810551 50.60955334 48.81606007 C58.77920952 56.97990825 66.94127222 65.15129558 75.10038946 73.3256742 C82.49495148 80.73363904 89.89734372 88.13370308 97.30552197 95.52805042 C105.91318052 104.11964614 114.51576163 112.71626392 123.11096174 121.32032698 C127.65910262 125.87314563 132.20924776 130.42391143 136.76467991 134.96943569 C141.04699376 139.24308565 145.32190601 143.52400387 149.59121037 147.81064892 C151.15958231 149.38298873 152.73051488 150.95277913 154.30417538 152.51982594 C156.45117834 154.65863571 158.58873404 156.80646499 160.72414684 158.95683765 C161.34943112 159.57542977 161.9747154 160.19402188 162.61894768 160.83135921 C167.07555455 165.34875436 169.97480961 169.26430656 170.70810986 175.75925159 C170.44599155 181.24276664 168.57911535 185.7320783 164.54014111 189.49753284 C160.35389457 192.46383528 156.73509573 193.4410295 151.64170361 193.45065784 C144.79389108 191.81485419 140.00839396 187.0550179 135.21621227 182.21080494 C134.54193984 181.54121248 133.86766741 180.87162002 133.17296249 180.18173689 C130.92579913 177.94649574 128.68946001 175.70073765 126.4529829 173.45480824 C124.84007313 171.8459653 123.22652623 170.2377609 121.61239147 168.63014698 C117.23800356 164.26942281 112.87314297 159.89927774 108.51034427 155.52696252 C103.94337209 150.95239158 99.369081 146.38514863 94.7959547 141.81673145 C86.62838638 133.65496827 78.46840592 125.48567164 70.31137792 117.31337666 C62.91651398 109.90510124 55.51380713 102.50473929 48.10532665 95.11008167 C39.49620916 86.51701975 30.89215955 77.91894529 22.29549915 69.31341738 C17.74684716 64.7600855 13.19618577 60.20881164 8.64024448 55.66277218 C4.35956659 51.39074902 0.08627282 47.11147528 -4.18139172 42.82645321 C-5.75018234 41.2536903 -7.32154175 39.68348498 -8.89561939 38.11601353 C-11.04072062 35.97908782 -13.17640183 33.83317234 -15.30991077 31.68468189 C-15.93742577 31.06385906 -16.56494077 30.44303622 -17.21147138 29.80340058 C-21.63354998 25.32072915 -23.97929121 21.52221993 -24.22939014 15.07175159 C-24.11639005 9.24790073 -21.76050825 5.9153697 -17.72939014 1.88425159 C-12.86339382 -2.44107847 -5.84494598 -2.38935763 0 0 Z "
        fill="#FEFEFE"
        transform="translate(95.72939014434814,73.11574840545654)"
    ></path>
    <path
        d="M 178.5,85.5 C 194.132,101.632 209.965,117.632 226,133.5C 226.333,118.833 226.667,104.167 227,89.5C 227.41,88.0993 227.91,86.766 228.5,85.5C 229.931,83.563 231.598,81.7297 233.5,80C 243.43,75.3262 251.764,77.1596 258.5,85.5C 259.485,115.79 259.818,146.123 259.5,176.5C 255.836,188.833 247.836,192.999 235.5,189C 230.998,185.33 226.665,181.497 222.5,177.5C 208.5,162.833 194.167,148.5 179.5,134.5C 168.839,123.672 158.339,112.672 148,101.5C 145.905,96.0626 146.072,90.7292 148.5,85.5C 150.294,83.2034 152.294,81.0367 154.5,79C 164.113,75.4049 172.113,77.5715 178.5,85.5 Z"
        fill="#FEFEFE"
        transform=""
    ></path>
    <path
        d="M0 0 C0.89203125 -0.0515625 1.7840625 -0.103125 2.703125 -0.15625 C10.42938232 1.50786696 16.54945471 9.00207185 21.9543457 14.41381836 C22.73098068 15.18373611 23.50761566 15.95365387 24.30778503 16.74690247 C26.85239398 19.27263939 29.38951336 21.80573292 31.92578125 24.33984375 C33.70063457 26.1082649 35.47563588 27.87653753 37.2507782 29.64466858 C40.96021685 33.34216385 44.6655306 37.04373747 48.3684082 40.74780273 C52.63897733 45.01957576 56.92060653 49.28003709 61.20750743 53.53541464 C65.34791462 57.64646617 69.47716027 61.76857986 73.6023159 65.89492989 C75.3521699 67.64242627 77.10526227 69.38668623 78.8616581 71.12760735 C81.31492828 73.56126649 83.75518285 76.00729125 86.19262695 78.45678711 C87.2796843 79.52698593 87.2796843 79.52698593 88.38870239 80.61880493 C93.37670054 85.66966099 97.17379399 90.62013554 97.1875 98.0625 C97.02047319 102.5266712 95.69668256 105.07547702 92.75 108.5 C88.53198698 112.21586862 86.09370449 113.66730822 80.5 113.8125 C79.56671875 113.84988281 78.6334375 113.88726562 77.671875 113.92578125 C71.72815641 113.05965113 67.60033093 108.59661237 63.51074219 104.47192383 C63.02540009 103.98526749 62.54005798 103.49861115 62.04000854 102.99720764 C60.45428913 101.40505383 58.87567624 99.80604269 57.296875 98.20703125 C56.18974224 97.09362122 55.08208817 95.98072934 53.97393799 94.86833191 C51.07049372 91.95163942 48.17268702 89.02941605 45.27648926 86.10552979 C40.62838266 81.41414562 35.97338896 76.72961812 31.31522369 72.0482235 C29.68974021 70.41250891 28.0677048 68.77343138 26.44598389 67.13398743 C25.45466363 66.13584211 24.46323486 65.13780454 23.47167969 64.13989258 C22.17312042 62.82895378 22.17312042 62.82895378 20.84832764 61.49153137 C18.91094371 59.45907352 18.91094371 59.45907352 16.75 58.5 C16.77094727 59.73041016 16.79189453 60.96082031 16.81347656 62.22851562 C16.88621599 66.8205183 16.93192271 71.41247065 16.96972656 76.00488281 C16.98976497 77.98739199 17.01700353 79.96984263 17.05175781 81.95214844 C17.10061954 84.81199641 17.12304673 87.67105881 17.140625 90.53125 C17.16127014 91.40865845 17.18191528 92.28606689 17.20318604 93.19006348 C17.20531305 99.10572493 16.11514858 103.56925147 12.75 108.5 C7.47684766 113.3964986 3.86181618 113.91144428 -3.1953125 113.84375 C-7.56096365 113.35247468 -10.43512898 111.87157253 -13.25 108.5 C-16.39085415 103.37907822 -16.70016925 99.32440559 -16.70166016 93.50048828 C-16.71334229 92.61513397 -16.72502441 91.72977966 -16.73706055 90.81759644 C-16.77055201 87.9017239 -16.78137314 84.98636024 -16.7890625 82.0703125 C-16.80124921 80.03538843 -16.81373542 78.00046613 -16.82650757 75.96554565 C-16.84895938 71.70371479 -16.85853521 67.44206245 -16.86083984 63.18017578 C-16.86612379 57.73018899 -16.91747148 52.28169446 -16.98035622 46.83210945 C-17.02129875 42.6300578 -17.03048261 38.42836463 -17.03095627 34.22613144 C-17.03632852 32.21751455 -17.05314112 30.20889331 -17.08180618 28.20047379 C-17.31288453 10.53895219 -17.31288453 10.53895219 -12.95068359 5.33154297 C-9.00389376 1.80585428 -5.28559244 0.18122031 0 0 Z "
        fill="#FEFEFE"
        transform="translate(94.25,146.5)"
    ></path>
</svg>
